PathFileType	4	(X/Y/Z)	./resultDataOpenSim/trcMotMarkerGrf/sub10/qtm-14-07.trc
DataRate	CameraRate	NumFrames	NumMarkers	Units	OrigDataRate	OrigDataStartFrame	OrigNumFrames
250.000000	250.000000	9	24	m	250.000000	1	511
Frame#	Time	L.Toe.Tip			R.Toe.Tip			L.Ankle.Lat			R.Ankle.Lat			L.Ankle.Med			R.Ankle.Med			L.Heel			R.Heel			L.Knee.Lat			R.Knee.Lat			L.Knee.Med			R.Knee.Med			L.Thigh.Upper			R.Thigh.Upper			L.ASIS			R.ASIS			V.Sacral			L.Acromium			R.Acromium			C7			L.Elbow			R.Elbow			L.Wrist.Lat			R.Wrist.Lat
		X1	Y1	Z1	X2	Y2	Z2	X3	Y3	Z3	X4	Y4	Z4	X5	Y5	Z5	X6	Y6	Z6	X7	Y7	Z7	X8	Y8	Z8	X9	Y9	Z9	X10	Y10	Z10	X11	Y11	Z11	X12	Y12	Z12	X13	Y13	Z13	X14	Y14	Z14	X15	Y15	Z15	X16	Y16	Z16	X17	Y17	Z17	X18	Y18	Z18	X19	Y19	Z19	X20	Y20	Z20	X21	Y21	Z21	X22	Y22	Z22	X23	Y23	Z23	X24	Y24	Z24

1	0	-1.5533118	0.037744546	-0.17738029	-0.90979292	0.12038308	0.021993449	-1.6851724	0.068018895	-0.20765564	-1.0470968	0.076402764	0.032642591	-1.6682766	0.091427244	-0.12453421	-1.0275703	0.11743992	-0.042702907	NaN	NaN	NaN	-1.0710253	0.037189392	-0.029325712	-1.5431957	0.43015899	-0.23913002	-1.1969909	0.45096371	0.058700784	-1.5411978	0.40787977	-0.11853547	-1.1625985	0.46249276	-0.065910793	-1.4158719	0.80407314	-0.29851156	-1.3599245	0.83383981	0.086582355	-1.3372083	0.9039552	-0.23848872	-1.3017654	0.92545786	0.0019996901	-1.518497	0.92727852	-0.094723458	-1.3302871	1.3767889	-0.27343418	-1.3897885	1.3793938	0.048284229	-1.442658	1.4135179	-0.13123718	-1.3595865	1.0257376	-0.33122565	-1.5465809	1.0777177	0.076354051	-1.1387486	0.90797445	-0.32433979	-1.5156123	0.8471667	0.14861764
2	0.004	-1.5533501	0.037717109	-0.17732128	-0.89899586	0.12339813	0.020638961	-1.6847341	0.068309524	-0.20724925	-1.0356265	0.077489174	0.034218756	-1.6683559	0.091614875	-0.12400064	-1.0178567	0.11820166	-0.041849812	NaN	NaN	NaN	-1.0598336	0.037513256	-0.025891691	-1.5406854	0.4292683	-0.23851136	-1.1919633	0.44976715	0.059288913	-1.5380692	0.40715002	-0.11815536	-1.1587971	0.46046055	-0.065888658	-1.4129789	0.80323041	-0.29801368	-1.3545396	0.83186539	0.086972965	-1.3335678	0.90259993	-0.2384051	-1.2965583	0.92397383	0.0020781185	-1.513943	0.92559839	-0.093519621	-1.3257407	1.3750358	-0.27307105	-1.3845301	1.3777815	0.048739181	-1.4379424	1.4121882	-0.13072601	-1.3543978	1.0238336	-0.330445	-1.542405	1.0763313	0.076492727	-1.1328149	0.90788084	-0.32301342	-1.5127192	0.84582724	0.14912442
3	0.008	-1.5533872	0.037691431	-0.17725923	-0.88836687	0.12615281	0.019293584	-1.6843952	0.068650373	-0.2068097	-1.0245309	0.078511796	0.035736096	-1.6681819	0.091823277	-0.12343821	-1.0083989	0.11889353	-0.041011324	NaN	NaN	NaN	-1.0489788	0.037857402	-0.02284026	-1.5380896	0.42839047	-0.23792308	-1.1868285	0.44864996	0.05988297	-1.5348804	0.40640078	-0.11776492	-1.1549894	0.45851667	-0.06580897	-1.4100969	0.80236585	-0.29759596	-1.3490913	0.82992557	0.087379908	-1.3299047	0.90126977	-0.23834969	-1.2913534	0.92247162	0.0021574051	-1.5093699	0.92392863	-0.092308536	-1.3211506	1.3732952	-0.27269597	-1.3790049	1.3761559	0.049298273	-1.4332214	1.410855	-0.13023588	-1.3492202	1.0219405	-0.32965277	-1.5382678	1.0749867	0.076632613	-1.1268693	0.90777745	-0.32166864	-1.5097556	0.84449643	0.14963535
4	0.012	-1.5534198	0.037667684	-0.17719543	-0.8779878	0.12847412	0.01798031	-1.6841809	0.069066982	-0.20632022	-1.0140774	0.079373086	0.037129281	-1.6678343	0.092048104	-0.12281968	-0.99932772	0.11948714	-0.040190677	NaN	NaN	NaN	-1.0386813	0.038239693	-0.020173938	-1.5353686	0.42754106	-0.23737624	-1.1815086	0.4476794	0.060493584	-1.5316329	0.40563698	-0.11734836	-1.151157	0.45671592	-0.065646965	-1.4072197	0.80146445	-0.29727402	-1.3435064	0.82805507	0.087826885	-1.3261965	0.89998287	-0.23834424	-1.2861322	0.92092768	0.0022215096	-1.5047532	0.92226627	-0.091080423	-1.3164736	1.3715733	-0.27229021	-1.3732517	1.3745199	0.049958213	-1.4284729	1.4095237	-0.12976122	-1.344055	1.0200652	-0.32883947	-1.5341278	1.0736846	0.07677498	-1.120898	0.90765465	-0.32028739	-1.5066348	0.84317404	0.15015302
5	0.016	-1.5534421	0.037646567	-0.17713512	-0.86798299	0.13027153	0.016717226	-1.6840467	0.069561178	-0.20577882	-1.0044121	0.079972939	0.038333313	-1.6675218	0.092279835	-0.12215256	-0.99067125	0.11997918	-0.039375187	NaN	NaN	NaN	-1.029047	0.038627245	-0.017874407	-1.5325321	0.42673972	-0.23686489	-1.1759199	0.44689186	0.061144051	-1.528345	0.40487951	-0.11689561	-1.1472676	0.45507458	-0.065405744	-1.4043177	0.800542	-0.2969985	-1.3377491	0.82629161	0.088322551	-1.3224397	0.89874709	-0.23840014	-1.2808957	0.91933453	0.0022504976	-1.5000815	0.92060561	-0.089830423	-1.3117054	1.3698782	-0.27184019	-1.3675643	1.3728835	0.050635218	-1.4236808	1.4082123	-0.1292705	-1.338905	1.01822	-0.32799382	-1.5298963	1.0724051	0.076930207	-1.1149393	0.90750702	-0.3188811	-1.5032552	0.84185911	0.15068191
6	0.02	-1.5534515	0.037629219	-0.17708308	-0.85854791	0.13150056	0.015537788	-1.6839262	0.070130236	-0.2051984	-0.99549999	0.080299376	0.039341412	-1.6672336	0.092546633	-0.1214947	-0.98242733	0.12035475	-0.038552049	NaN	NaN	NaN	-1.0201071	0.038945773	-0.01600068	-1.5295969	0.42599184	-0.23637893	-1.1698972	0.44629681	0.061880568	-1.5249836	0.40414205	-0.11642073	-1.1432715	0.4535802	-0.065097758	-1.4013415	0.79964125	-0.29670411	-1.3318189	0.824663	0.088846581	-1.3186403	0.89756512	-0.23852234	-1.27564	0.91770375	0.0022367451	-1.495346	0.91894705	-0.088552413	-1.3068852	1.3682218	-0.27135743	-1.3621005	1.3712516	0.051266955	-1.4188449	1.4069374	-0.12873684	-1.3337665	1.0164229	-0.32709913	-1.5255248	1.0711501	0.077122076	-1.1090627	0.90733273	-0.31748306	-1.4995882	0.84055455	0.15121473
7	0.024	-1.5534536	0.037616049	-0.17704013	-0.84980326	0.13215007	0.014545666	-1.6837671	0.07077641	-0.20460898	-0.98715327	0.080440977	0.040233181	-1.6667973	0.092902345	-0.12091171	-0.97460738	0.12058043	-0.03773068	NaN	NaN	NaN	-1.011843	0.039128994	-0.014433626	-1.526575	0.42528375	-0.23591435	-1.1632982	0.44589156	0.062740322	-1.5214851	0.40342335	-0.11595613	-1.1391261	0.45221338	-0.064737772	-1.3982539	0.79878913	-0.29635784	-1.3257263	0.82317828	0.089361271	-1.3148033	0.89644045	-0.23871496	-1.2703135	0.91605879	0.002183908	-1.4905363	0.91729877	-0.087238507	-1.3020657	1.3666171	-0.27087054	-1.3567572	1.3696391	0.051852573	-1.4139794	1.4057024	-0.12816054	-1.3286388	1.0146906	-0.3261586	-1.5210308	1.0699324	0.077355414	-1.1033044	0.9071332	-0.31611501	-1.4958052	0.83926324	0.15170636
8	0.028	-1.5534576	0.03760736	-0.17700368	-0.84174513	0.13223946	0.013858426	-1.683543	0.071504255	-0.20404684	-0.97921512	0.080477356	0.041103287	-1.6661446	0.093374825	-0.12041943	-0.96722805	0.12062049	-0.036935188	NaN	NaN	NaN	-1.00418	0.039137003	-0.01291749	-1.5234733	0.42460388	-0.23546865	-1.1562746	0.44563905	0.063674026	-1.5178206	0.40271493	-0.11552227	-1.1348103	0.45096437	-0.064341032	-1.3950472	0.79798047	-0.29596344	-1.3194894	0.82183774	0.089829715	-1.3109367	0.89536794	-0.2389796	-1.2648503	0.9144305	0.0020974357	-1.485643	0.91567574	-0.085877004	-1.29727	1.3650715	-0.27039425	-1.351379	1.3680718	0.052421332	-1.4090964	1.4045019	-0.12755175	-1.3235394	1.0130322	-0.32524227	-1.5164329	1.0687139	0.077562194	-1.0976442	0.90691902	-0.3147723	-1.4921439	0.83798745	0.15211037
9	0.032	-1.5534641	0.037603146	-0.1769716	-0.83434577	0.13181734	0.013453656	-1.6832568	0.072317342	-0.20354665	-0.97168903	0.080404281	0.041983251	-1.665368	0.093949778	-0.11997961	-0.96032104	0.12044703	-0.03618305	NaN	NaN	NaN	-0.99705234	0.038960585	-0.011290992	-1.5202582	0.42395874	-0.23503592	-1.1492473	0.44546413	0.064551347	-1.514014	0.40201346	-0.11511576	-1.1303119	0.44983446	-0.063926869	-1.3917283	0.79721074	-0.29553417	-1.3131232	0.82064951	0.090231063	-1.3070508	0.89433391	-0.23931035	-1.2592375	0.91284511	0.0019733419	-1.480633	0.91409404	-0.0844175	-1.2924834	1.3635911	-0.26992105	-1.3459	1.3665654	0.052997638	-1.4041949	1.4033338	-0.12690995	-1.3185093	1.0114504	-0.32451456	-1.5116954	1.0673639	0.077576013	-1.0920463	0.90670822	-0.31343571	-1.4886184	0.83674165	0.1524443
